# xmcd
# 
# Track frame offsets:
#     150
#     2657
#     35559
#     68173
#     99369
#     117066
#     134981
#     165726
#     196752
#     219507
#     241784
#     273012
#     304079
#     330055
# 
# Disc length: 4440
# 
# Revision: 0
# Processed by: cddbd v1.5.2PL0 Copyright (c) Steve Scherf et al.
# Submitted via: fre:ac v1.0.31
# 
DISCID=b311560e
DTITLE=stephenson - D5 Reamde by Neal Stephenson
DYEAR=0
DGENRE=Audiobook
TTITLE0=D5 REAMDE - 01
TTITLE1=D5 REAMDE - 02
TTITLE2=D5 REAMDE - 03
TTITLE3=D5 REAMDE - 04
TTITLE4=D5 REAMDE - 05
TTITLE5=D5 REAMDE - 06
TTITLE6=D5 REAMDE - 07
TTITLE7=D5 REAMDE - 08
TTITLE8=D5 REAMDE - 09
TTITLE9=D5 REAMDE - 10
TTITLE10=D5 REAMDE - 11
TTITLE11=D5 REAMDE - 12
TTITLE12=D5 REAMDE - 13
TTITLE13=D5 REAMDE - 14
EXTD=
EXTT0=
EXTT1=
EXTT2=
EXTT3=
EXTT4=
EXTT5=
EXTT6=
EXTT7=
EXTT8=
EXTT9=
EXTT10=
EXTT11=
EXTT12=
EXTT13=
PLAYORDER=
